<mxfile host="app.diagrams.net" agent="Mozilla/5.0 (X11; Linux x86_64) AppleWebKit/537.36 (KHTML, like Gecko) Chrome/132.0.0.0 Safari/537.36" version="26.0.10">
  <diagram name="Page-1" id="2YBvvXClWsGukQMizWep">
    <mxGraphModel dx="1136" dy="582" grid="1" gridSize="10" guides="1" tooltips="1" connect="1" arrows="1" fold="1" page="1" pageScale="1" pageWidth="1100" pageHeight="850" math="0" shadow="0">
      <root>
        <mxCell id="0" />
        <mxCell id="1" parent="0" />
        <mxCell id="z28AaAyg_YoIM6sgCLT6-5" value="AuthorizationController" style="shape=umlLifeline;perimeter=lifelinePerimeter;whiteSpace=wrap;html=1;container=1;dropTarget=0;collapsible=0;recursiveResize=0;outlineConnect=0;portConstraint=eastwest;newEdgeStyle={&quot;curved&quot;:0,&quot;rounded&quot;:0};" vertex="1" parent="1">
          <mxGeometry x="320" y="125" width="170" height="300" as="geometry" />
        </mxCell>
        <mxCell id="z28AaAyg_YoIM6sgCLT6-4" value="" style="html=1;points=[[0,0,0,0,5],[0,1,0,0,-5],[1,0,0,0,5],[1,1,0,0,-5]];perimeter=orthogonalPerimeter;outlineConnect=0;targetShapes=umlLifeline;portConstraint=eastwest;newEdgeStyle={&quot;curved&quot;:0,&quot;rounded&quot;:0};" vertex="1" parent="z28AaAyg_YoIM6sgCLT6-5">
          <mxGeometry x="80" y="70" width="10" height="200" as="geometry" />
        </mxCell>
        <mxCell id="z28AaAyg_YoIM6sgCLT6-6" value="UsuarioServiceImp" style="shape=umlLifeline;perimeter=lifelinePerimeter;whiteSpace=wrap;html=1;container=1;dropTarget=0;collapsible=0;recursiveResize=0;outlineConnect=0;portConstraint=eastwest;newEdgeStyle={&quot;curved&quot;:0,&quot;rounded&quot;:0};" vertex="1" parent="1">
          <mxGeometry x="560" y="125" width="130" height="300" as="geometry" />
        </mxCell>
        <mxCell id="z28AaAyg_YoIM6sgCLT6-7" value="" style="html=1;points=[[0,0,0,0,5],[0,1,0,0,-5],[1,0,0,0,5],[1,1,0,0,-5]];perimeter=orthogonalPerimeter;outlineConnect=0;targetShapes=umlLifeline;portConstraint=eastwest;newEdgeStyle={&quot;curved&quot;:0,&quot;rounded&quot;:0};" vertex="1" parent="z28AaAyg_YoIM6sgCLT6-6">
          <mxGeometry x="60" y="80" width="10" height="170" as="geometry" />
        </mxCell>
        <mxCell id="z28AaAyg_YoIM6sgCLT6-8" value="signIn(SignInForm form)" style="html=1;verticalAlign=bottom;endArrow=block;curved=0;rounded=0;" edge="1" parent="1" target="z28AaAyg_YoIM6sgCLT6-7">
          <mxGeometry width="80" relative="1" as="geometry">
            <mxPoint x="410" y="214.9999999999999" as="sourcePoint" />
            <mxPoint x="620" y="215" as="targetPoint" />
          </mxGeometry>
        </mxCell>
        <mxCell id="z28AaAyg_YoIM6sgCLT6-9" value="UsuarioRepository" style="shape=umlLifeline;perimeter=lifelinePerimeter;whiteSpace=wrap;html=1;container=1;dropTarget=0;collapsible=0;recursiveResize=0;outlineConnect=0;portConstraint=eastwest;newEdgeStyle={&quot;curved&quot;:0,&quot;rounded&quot;:0};" vertex="1" parent="1">
          <mxGeometry x="810" y="125" width="140" height="300" as="geometry" />
        </mxCell>
        <mxCell id="z28AaAyg_YoIM6sgCLT6-10" value="" style="html=1;points=[[0,0,0,0,5],[0,1,0,0,-5],[1,0,0,0,5],[1,1,0,0,-5]];perimeter=orthogonalPerimeter;outlineConnect=0;targetShapes=umlLifeline;portConstraint=eastwest;newEdgeStyle={&quot;curved&quot;:0,&quot;rounded&quot;:0};" vertex="1" parent="z28AaAyg_YoIM6sgCLT6-9">
          <mxGeometry x="65" y="80" width="10" height="140" as="geometry" />
        </mxCell>
        <mxCell id="z28AaAyg_YoIM6sgCLT6-11" value="existByEmailIgnoreCase(String email)" style="html=1;verticalAlign=bottom;endArrow=block;curved=0;rounded=0;" edge="1" parent="1" source="z28AaAyg_YoIM6sgCLT6-7" target="z28AaAyg_YoIM6sgCLT6-10">
          <mxGeometry width="80" relative="1" as="geometry">
            <mxPoint x="560" y="225" as="sourcePoint" />
            <mxPoint x="640" y="225" as="targetPoint" />
            <Array as="points">
              <mxPoint x="660" y="225" />
            </Array>
          </mxGeometry>
        </mxCell>
        <mxCell id="z28AaAyg_YoIM6sgCLT6-12" value="boolean false" style="endArrow=open;endSize=12;dashed=1;html=1;rounded=0;" edge="1" parent="1">
          <mxGeometry width="160" relative="1" as="geometry">
            <mxPoint x="875" y="254.9999999999999" as="sourcePoint" />
            <mxPoint x="630" y="254.9999999999999" as="targetPoint" />
          </mxGeometry>
        </mxCell>
        <mxCell id="z28AaAyg_YoIM6sgCLT6-13" value="saveAndReturnEmail(Usuario u)" style="html=1;verticalAlign=bottom;endArrow=block;curved=0;rounded=0;" edge="1" parent="1">
          <mxGeometry width="80" relative="1" as="geometry">
            <mxPoint x="630" y="294.9999999999999" as="sourcePoint" />
            <mxPoint x="870" y="295" as="targetPoint" />
          </mxGeometry>
        </mxCell>
        <mxCell id="z28AaAyg_YoIM6sgCLT6-14" value="String email" style="endArrow=open;endSize=12;dashed=1;html=1;rounded=0;" edge="1" parent="1" source="z28AaAyg_YoIM6sgCLT6-10">
          <mxGeometry width="160" relative="1" as="geometry">
            <mxPoint x="885" y="334.9999999999999" as="sourcePoint" />
            <mxPoint x="630" y="334.9999999999999" as="targetPoint" />
          </mxGeometry>
        </mxCell>
        <mxCell id="z28AaAyg_YoIM6sgCLT6-15" value="String email" style="endArrow=open;endSize=12;dashed=1;html=1;rounded=0;" edge="1" parent="1">
          <mxGeometry width="160" relative="1" as="geometry">
            <mxPoint x="620" y="354.9999999999999" as="sourcePoint" />
            <mxPoint x="410" y="354.9999999999999" as="targetPoint" />
          </mxGeometry>
        </mxCell>
        <mxCell id="z28AaAyg_YoIM6sgCLT6-17" value="" style="shape=umlLifeline;perimeter=lifelinePerimeter;whiteSpace=wrap;html=1;container=1;dropTarget=0;collapsible=0;recursiveResize=0;outlineConnect=0;portConstraint=eastwest;newEdgeStyle={&quot;curved&quot;:0,&quot;rounded&quot;:0};participant=umlActor;" vertex="1" parent="1">
          <mxGeometry x="80" y="125" width="20" height="300" as="geometry" />
        </mxCell>
        <mxCell id="z28AaAyg_YoIM6sgCLT6-20" value="" style="html=1;points=[[0,0,0,0,5],[0,1,0,0,-5],[1,0,0,0,5],[1,1,0,0,-5]];perimeter=orthogonalPerimeter;outlineConnect=0;targetShapes=umlLifeline;portConstraint=eastwest;newEdgeStyle={&quot;curved&quot;:0,&quot;rounded&quot;:0};" vertex="1" parent="z28AaAyg_YoIM6sgCLT6-17">
          <mxGeometry x="5" y="70" width="10" height="210" as="geometry" />
        </mxCell>
        <mxCell id="z28AaAyg_YoIM6sgCLT6-18" value="Postman" style="text;strokeColor=none;align=center;fillColor=none;html=1;verticalAlign=middle;whiteSpace=wrap;rounded=0;" vertex="1" parent="1">
          <mxGeometry x="60" y="90" width="60" height="30" as="geometry" />
        </mxCell>
        <mxCell id="z28AaAyg_YoIM6sgCLT6-19" value="POST&amp;nbsp;&lt;div&gt;&lt;span style=&quot;color: rgb(33, 33, 33); font-family: Inter, OpenSans, Helvetica, Arial, sans-serif; font-size: 12px; text-align: left; white-space: pre-wrap;&quot;&gt;http://127.0.0.1:5000/basic-login/api/auth/signIn&lt;/span&gt;&lt;/div&gt;" style="html=1;verticalAlign=bottom;endArrow=block;curved=0;rounded=0;" edge="1" parent="1" source="z28AaAyg_YoIM6sgCLT6-20" target="z28AaAyg_YoIM6sgCLT6-4">
          <mxGeometry width="80" relative="1" as="geometry">
            <mxPoint x="95" y="204.9999999999999" as="sourcePoint" />
            <mxPoint x="350" y="205" as="targetPoint" />
            <Array as="points">
              <mxPoint x="160" y="205" />
            </Array>
          </mxGeometry>
        </mxCell>
        <mxCell id="z28AaAyg_YoIM6sgCLT6-21" value="HTTP 201 CREATED body&lt;div&gt;(201, email, CREATED, TIMESTAMP)&lt;/div&gt;" style="endArrow=open;endSize=12;dashed=1;html=1;rounded=0;" edge="1" parent="1" source="z28AaAyg_YoIM6sgCLT6-4" target="z28AaAyg_YoIM6sgCLT6-20">
          <mxGeometry width="160" relative="1" as="geometry">
            <mxPoint x="300" y="385" as="sourcePoint" />
            <mxPoint x="140" y="385" as="targetPoint" />
            <Array as="points">
              <mxPoint x="220" y="385" />
            </Array>
          </mxGeometry>
        </mxCell>
        <mxCell id="z28AaAyg_YoIM6sgCLT6-23" value="&lt;font style=&quot;font-size: 14px;&quot;&gt;&lt;b&gt;Crear cuenta&lt;/b&gt;&lt;/font&gt;" style="text;strokeColor=none;align=center;fillColor=none;html=1;verticalAlign=middle;whiteSpace=wrap;rounded=0;" vertex="1" parent="1">
          <mxGeometry x="80" y="40" width="110" height="30" as="geometry" />
        </mxCell>
        <mxCell id="z28AaAyg_YoIM6sgCLT6-24" value="&lt;font style=&quot;font-size: 14px;&quot;&gt;&lt;b&gt;Iniciar sesiÃ³n&lt;/b&gt;&lt;/font&gt;" style="text;strokeColor=none;align=center;fillColor=none;html=1;verticalAlign=middle;whiteSpace=wrap;rounded=0;" vertex="1" parent="1">
          <mxGeometry x="80" y="450" width="110" height="30" as="geometry" />
        </mxCell>
      </root>
    </mxGraphModel>
  </diagram>
</mxfile>
